<?xml version="1.0" encoding="utf-8"?>
<!-- Generator: Adobe Illustrator 28.3.0, SVG Export Plug-In . SVG Version: 6.00 Build 0)  -->
<svg version="1.1" id="Layer_1" xmlns="http://www.w3.org/2000/svg" xmlns:xlink="http://www.w3.org/1999/xlink" x="0px" y="0px"
	 viewBox="0 0 32 40" style="enable-background:new 0 0 32 40;" xml:space="preserve">
<style type="text/css">
	.st0{fill:#B8E6C9;}
</style>
<g>
	<path class="st0" d="M16,14c-3.3,0-6-2.7-6-6s2.7-6,6-6s6,2.7,6,6S19.3,14,16,14z M16,4c-2.2,0-4,1.8-4,4s1.8,4,4,4s4-1.8,4-4
		S18.2,4,16,4z M22,30H10c-2.2,0-4-1.8-4-4v-1c0-5.5,4.5-10,10-10s10,4.5,10,10v1C26,28.2,24.2,30,22,30z M16,17c-4.4,0-8,3.6-8,8v1
		c0,1.1,0.9,2,2,2h12c1.1,0,2-0.9,2-2v-1C24,20.6,20.4,17,16,17z"/>
</g>
</svg>
