<?xml version="1.0" encoding="utf-8"?>
<!-- Generator: Adobe Illustrator 28.3.0, SVG Export Plug-In . SVG Version: 6.00 Build 0)  -->
<svg version="1.1" id="Layer_1" xmlns="http://www.w3.org/2000/svg" xmlns:xlink="http://www.w3.org/1999/xlink" x="0px" y="0px"
	 viewBox="0 0 32 40" style="enable-background:new 0 0 32 40;" xml:space="preserve">
<style type="text/css">
	.st0{fill:#B8E6C9;}
</style>
<g>
	<path class="st0" d="M13,24c-1.7,0-3,1.3-3,3s1.3,3,3,3s3-1.3,3-3C16,25.3,14.7,24,13,24z M13,28c-0.6,0-1-0.4-1-1s0.4-1,1-1
		s1,0.4,1,1C14,27.6,13.6,28,13,28z M24,24c-1.7,0-3,1.3-3,3s1.3,3,3,3s3-1.3,3-3C27,25.3,25.7,24,24,24z M24,28c-0.6,0-1-0.4-1-1
		s0.4-1,1-1s1,0.4,1,1C25,27.6,24.6,28,24,28z M10,19h16c0.5,0,0.8-0.3,1-0.7l3-11c0.1-0.5-0.2-1.1-0.7-1.2c-0.1,0-0.2,0-0.3,0H8.8
		L8,2.7C7.8,2.3,7.5,2,7,2H3C2.4,2,2,2.4,2,3s0.4,1,1,1h3.2l3.5,13c-1.6,0.2-2.9,1.6-2.7,3.3c0.2,1.5,1.4,2.7,3,2.7h16
		c0.6,0,1-0.4,1-1s-0.4-1-1-1H10c-0.6,0-1-0.4-1-1S9.4,19,10,19z M9.4,8h18.3l-2.5,9H11.8L9.4,8z"/>
</g>
</svg>
