<?xml version="1.0" encoding="utf-8"?>
<!-- Generator: Adobe Illustrator 28.3.0, SVG Export Plug-In . SVG Version: 6.00 Build 0)  -->
<svg version="1.1" id="Layer_1" xmlns="http://www.w3.org/2000/svg" xmlns:xlink="http://www.w3.org/1999/xlink" x="0px" y="0px"
	 viewBox="0 0 32 40" style="enable-background:new 0 0 32 40;" xml:space="preserve">
<style type="text/css">
	.st0{fill:#B8E6C9;}
</style>
<g>
	<path class="st0" d="M29,9H3C2.4,9,2,8.6,2,8s0.4-1,1-1h26c0.6,0,1,0.4,1,1S29.6,9,29,9z M26,16c0-0.6-0.4-1-1-1H7
		c-0.6,0-1,0.4-1,1c0,0.6,0.4,1,1,1h18C25.6,17,26,16.6,26,16z M30,24c0-0.6-0.4-1-1-1H3c-0.6,0-1,0.4-1,1s0.4,1,1,1h26
		C29.6,25,30,24.6,30,24z"/>
</g>
</svg>
