<?xml version="1.0" encoding="utf-8"?>
<!-- Generator: Adobe Illustrator 28.3.0, SVG Export Plug-In . SVG Version: 6.00 Build 0)  -->
<svg version="1.1" id="Layer_1" xmlns="http://www.w3.org/2000/svg" xmlns:xlink="http://www.w3.org/1999/xlink" x="0px" y="0px"
	 viewBox="0 0 32 40" style="enable-background:new 0 0 32 40;" xml:space="preserve">
<style type="text/css">
	.st0{fill:#B8E6C9;}
</style>
<g>
	<path class="st0" d="M29.7,28.3L21.5,20c3.9-4.7,3.2-11.6-1.5-15.5S8.4,1.3,4.5,6S1.3,17.6,6,21.5c4.1,3.4,10,3.4,14,0l8.3,8.3
		c0.4,0.4,1.1,0.3,1.4-0.1C30,29.2,30,28.7,29.7,28.3L29.7,28.3z M4,13c0-5,4-9,9-9s9,4,9,9s-4,9-9,9S4,18,4,13z"/>
</g>
</svg>
